<svg xmlns="http://www.w3.org/2000/svg" xmlns:xlink="http://www.w3.org/1999/xlink" width="16" height="16" preserveAspectRatio="xMidYMid meet" viewBox="0 0 16 16" style="-ms-transform: rotate(360deg); -webkit-transform: rotate(360deg); transform: rotate(360deg);"><g fill="currentColor"><path fill-rule="evenodd" d="M13 14s1 0 1-1s-1-4-6-4s-6 3-6 4s1 1 1 1h10zm-9.995-.944v-.002v.002zM3.022 13h9.956a.274.274 0 0 0 .014-.002l.008-.002c-.001-.246-.154-.986-.832-1.664C11.516 10.68 10.289 10 8 10c-2.29 0-3.516.68-4.168 1.332c-.678.678-.83 1.418-.832 1.664a1.05 1.05 0 0 0 .022.004zm9.974.056v-.002v.002zM8 7a2 2 0 1 0 0-4a2 2 0 0 0 0 4zm3-2a3 3 0 1 1-6 0a3 3 0 0 1 6 0z"/></g></svg>